<svg xmlns="http://www.w3.org/2000/svg" viewBox="0 0 512 512" fill="none">
  <defs>
    <linearGradient id="flame-main" x1="256" y1="404" x2="256" y2="36" gradientUnits="userSpaceOnUse">
      <stop offset="0%" stop-color="#312E81"/>
      <stop offset="45%" stop-color="#4F46E5"/>
      <stop offset="100%" stop-color="#818CF8"/>
    </linearGradient>
    <linearGradient id="flame-inner" x1="256" y1="368" x2="256" y2="96" gradientUnits="userSpaceOnUse">
      <stop offset="0%" stop-color="#4338CA"/>
      <stop offset="100%" stop-color="#C4B5FD"/>
    </linearGradient>
    <linearGradient id="anvil-body" x1="256" y1="444" x2="256" y2="396" gradientUnits="userSpaceOnUse">
      <stop offset="0%" stop-color="#1E1B4B"/>
      <stop offset="100%" stop-color="#312E81"/>
    </linearGradient>
  </defs>

  <!-- Anvil base -->
  <rect x="112" y="440" width="288" height="40" rx="10" fill="#1E1B4B"/>

  <!-- Anvil body -->
  <rect x="192" y="396" width="128" height="52" rx="6" fill="url(#anvil-body)"/>

  <!-- Outer flame -->
  <path d="M256 36 C256 36 148 172 148 272 C148 352 196 404 256 404 C316 404 364 352 364 272 C364 172 256 36 256 36Z" fill="url(#flame-main)"/>

  <!-- Inner flame glow -->
  <path d="M256 96 C256 96 196 200 196 276 C196 332 224 368 256 368 C288 368 316 332 316 276 C316 200 256 96 256 96Z" fill="url(#flame-inner)" opacity="0.3"/>

  <!-- Top highlight -->
  <ellipse cx="238" cy="184" rx="26" ry="48" fill="white" opacity="0.08" transform="rotate(-8 238 184)"/>

  <!-- Sparks -->
  <circle cx="156" cy="104" r="14" fill="#F59E0B" opacity="0.9"/>
  <circle cx="124" cy="192" r="9" fill="#FBBF24" opacity="0.8"/>
  <circle cx="352" cy="92" r="12" fill="#F59E0B" opacity="0.9"/>
  <circle cx="388" cy="176" r="7" fill="#FDE68A" opacity="0.75"/>
</svg>
